<?xml version="1.0" encoding="UTF-8"?>
<svg xmlns="http://www.w3.org/2000/svg" xmlns:xlink="http://www.w3.org/1999/xlink" width="50px" height="50px" viewBox="0 0 50 50" version="1.1">
<g id="surface1">
<path style=" stroke:none;fill-rule:nonzero;fill:rgb(0%,0%,0%);fill-opacity:1;" d="M 3.027344 2.898438 C 2.492188 3.269531 2.324219 3.789062 2.578125 4.316406 C 2.863281 4.902344 2.960938 4.921875 5.324219 4.980469 L 7.460938 5.027344 L 8.078125 7.566406 C 8.410156 8.964844 8.683594 10.164062 8.691406 10.222656 C 8.691406 10.320312 7.902344 10.351562 5.070312 10.351562 L 1.445312 10.351562 L 1.113281 10.683594 C 0.734375 11.0625 0.675781 11.523438 0.929688 12.011719 C 1.242188 12.625 0.851562 12.597656 9.863281 12.597656 C 18.976562 12.597656 18.527344 12.566406 18.808594 13.230469 C 18.984375 13.660156 18.984375 13.90625 18.800781 14.257812 C 18.496094 14.84375 18.476562 14.84375 13.964844 14.84375 C 9.316406 14.84375 9.746094 14.746094 10.011719 15.722656 C 10.226562 16.53125 10.253906 16.503906 9.328125 16.503906 C 8.320312 16.503906 7.960938 16.648438 7.746094 17.15625 C 7.550781 17.625 7.648438 18.054688 8.019531 18.417969 L 8.3125 18.699219 L 13.847656 18.75 C 18.097656 18.789062 19.433594 18.828125 19.601562 18.925781 C 20.070312 19.1875 20.246094 19.882812 19.972656 20.410156 C 19.667969 20.996094 19.628906 20.996094 15.285156 20.996094 C 10.800781 20.996094 11.210938 20.898438 11.476562 21.875 C 11.554688 22.167969 11.621094 22.46875 11.621094 22.527344 C 11.621094 22.625 10.664062 22.65625 7.160156 22.65625 C 4.503906 22.65625 2.550781 22.695312 2.335938 22.753906 C 1.847656 22.890625 1.554688 23.242188 1.496094 23.757812 C 1.445312 24.160156 1.476562 24.226562 1.789062 24.570312 L 2.128906 24.949219 L 11.601562 25 C 21.894531 25.046875 21.242188 25.007812 21.542969 25.59375 C 21.71875 25.945312 21.71875 26.308594 21.535156 26.660156 C 21.230469 27.246094 21.203125 27.246094 16.796875 27.246094 C 13.664062 27.246094 12.792969 27.273438 12.792969 27.363281 C 12.792969 27.429688 12.882812 27.820312 12.988281 28.222656 C 13.085938 28.621094 13.15625 28.964844 13.136719 28.984375 C 13.117188 29.003906 12.921875 29.0625 12.6875 29.109375 C 11.953125 29.277344 11.203125 29.707031 10.617188 30.28125 C 8.878906 32.019531 8.878906 34.734375 10.605469 36.464844 C 11.308594 37.167969 12.121094 37.566406 13.15625 37.714844 L 13.957031 37.832031 L 13.476562 38.105469 C 12.871094 38.445312 12.089844 39.246094 11.730469 39.882812 C 10.851562 41.433594 10.898438 43.515625 11.855469 44.96875 C 13.632812 47.644531 17.285156 48.046875 19.511719 45.800781 C 21.769531 43.515625 21.289062 39.667969 18.546875 38.09375 L 18.019531 37.792969 L 39.582031 37.792969 L 39.003906 38.164062 C 36.328125 39.890625 35.9375 43.554688 38.183594 45.800781 C 40.136719 47.753906 43.195312 47.753906 45.117188 45.808594 C 47.363281 43.535156 46.972656 39.890625 44.296875 38.164062 L 43.722656 37.792969 L 44.523438 37.792969 C 45.761719 37.792969 46.289062 37.46875 46.289062 36.699219 C 46.289062 36.230469 46.132812 35.886719 45.8125 35.671875 C 45.566406 35.507812 44.621094 35.496094 29.230469 35.449219 L 12.910156 35.398438 L 12.492188 35.105469 C 11.398438 34.335938 11.308594 32.644531 12.316406 31.785156 C 12.492188 31.640625 12.746094 31.472656 12.882812 31.414062 C 13.066406 31.328125 17.023438 31.289062 27.734375 31.25 L 42.335938 31.199219 L 42.988281 30.886719 C 43.789062 30.507812 44.503906 29.832031 44.855469 29.101562 C 45.148438 28.503906 49.21875 11.933594 49.21875 11.355469 C 49.21875 11.101562 49.140625 10.9375 48.886719 10.683594 L 48.554688 10.351562 L 11.132812 10.351562 L 11.046875 10.125 C 10.996094 10.007812 10.625 8.484375 10.207031 6.738281 C 9.796875 5 9.394531 3.445312 9.316406 3.300781 C 9.042969 2.761719 8.847656 2.734375 5.9375 2.734375 C 3.585938 2.734375 3.242188 2.753906 3.027344 2.898438 Z M 17.148438 39.921875 C 18.15625 40.4375 18.652344 41.21875 18.652344 42.273438 C 18.644531 43.4375 18.164062 44.226562 17.207031 44.695312 C 15.871094 45.351562 14.25 44.804688 13.613281 43.476562 C 13.214844 42.65625 13.351562 41.414062 13.917969 40.671875 C 14.640625 39.734375 16.113281 39.394531 17.148438 39.921875 Z M 42.480469 39.804688 C 43.488281 40.097656 44.335938 41.257812 44.335938 42.332031 C 44.335938 43.269531 43.664062 44.316406 42.792969 44.734375 C 42.148438 45.046875 41.152344 45.046875 40.507812 44.734375 C 39.640625 44.316406 38.964844 43.269531 38.964844 42.332031 C 38.964844 40.945312 40.214844 39.675781 41.613281 39.65625 C 41.796875 39.648438 42.1875 39.714844 42.480469 39.804688 Z M 42.480469 39.804688 "/>
</g>
</svg>
