<?xml version="1.0" encoding="UTF-8"?>
<svg xmlns="http://www.w3.org/2000/svg" xmlns:xlink="http://www.w3.org/1999/xlink" width="50px" height="50px" viewBox="0 0 50 50" version="1.1">
<g id="surface1">
<path style=" stroke:none;fill-rule:nonzero;fill:rgb(0%,0%,0%);fill-opacity:1;" d="M 15.679688 12.902344 L 15.277344 13.304688 L 15.277344 36.695312 L 15.679688 37.097656 C 16.402344 37.820312 16.25 37.890625 22.195312 33.984375 C 23.667969 33.015625 24.929688 32.222656 25 32.222656 C 25.070312 32.222656 26.234375 32.957031 27.597656 33.847656 C 32.179688 36.859375 33.234375 37.5 33.570312 37.5 C 33.765625 37.5 34.097656 37.320312 34.320312 37.097656 L 34.722656 36.695312 L 34.722656 13.304688 L 33.917969 12.5 L 16.082031 12.5 Z M 32.359375 24.515625 L 32.359375 34.152344 L 28.875 31.875 C 26.75 30.472656 25.25 29.582031 25.042969 29.582031 C 24.597656 29.582031 24.597656 29.582031 20.875 32.027344 L 17.640625 34.152344 L 17.640625 14.859375 L 32.359375 14.859375 Z M 32.359375 24.515625 "/>
</g>
</svg>
