<?xml version="1.0" encoding="UTF-8"?>
<svg xmlns="http://www.w3.org/2000/svg" xmlns:xlink="http://www.w3.org/1999/xlink" width="120px" height="120px" viewBox="0 0 120 120" version="1.1">
<g id="surface1">
<path style="fill:none;stroke-width:5;stroke-linecap:round;stroke-linejoin:round;stroke:rgb(0%,0%,0%);stroke-opacity:1;stroke-miterlimit:4;" d="M 320.996094 236.507161 C 330.664062 238.639323 333.577474 235.888672 331.982422 226.009115 C 331.819661 224.983724 331.25 224.023438 331.022135 222.998047 C 330.257161 219.580078 329.166667 216.422526 325 216.015625 C 321.71224 215.70638 316.373698 219.384766 314.941406 222.477214 C 314.257812 223.958333 314.290365 225.260417 315.022786 226.48112 C 316.992188 229.752604 317.919922 233.577474 320.507812 236.507161 " transform="matrix(0.24,0,0,0.24,0,0)"/>
<path style="fill:none;stroke-width:8;stroke-linecap:round;stroke-linejoin:round;stroke:rgb(0%,0%,0%);stroke-opacity:1;stroke-miterlimit:4;" d="M 297.49349 183.496094 C 296.598307 190.120443 297.623698 192.399089 303.531901 194.417318 C 308.317057 196.061198 312.792969 199.788411 318.570964 196.630859 C 320.93099 195.328776 322.851562 198.144531 324.430339 199.576823 C 329.557292 204.264323 336.051432 206.396484 342.02474 209.45638 C 346.679688 211.848958 349.479167 215.022786 350.651042 220.458984 C 352.994792 231.25 351.806641 241.829427 350.520833 252.50651 C 350.244141 254.752604 348.551432 255.729167 347.03776 257.047526 C 344.222005 259.505208 341.861979 262.386068 341.975911 266.438802 C 343.001302 268.164062 344.628906 267.415365 345.996094 267.480469 C 350.667318 267.708333 355.38737 268.310547 359.99349 267.871094 C 364.518229 267.431641 368.994141 267.659505 373.502604 267.529297 C 381.526693 267.26888 381.315104 270.182292 381.005859 276.497396 C 380.729167 282.11263 378.173828 286.995443 375.992839 291.992188 " transform="matrix(0.24,0,0,0.24,0,0)"/>
<path style="fill:none;stroke-width:4;stroke-linecap:round;stroke-linejoin:round;stroke:rgb(0%,0%,0%);stroke-opacity:1;stroke-miterlimit:4;" d="M 438.004557 278.255208 C 429.231771 280.094401 420.605469 278.28776 412.011719 276.904297 C 409.130859 276.432292 406.33138 276.790365 403.499349 276.497396 " transform="matrix(0.24,0,0,0.24,0,0)"/>
<path style="fill:none;stroke-width:5;stroke-linecap:round;stroke-linejoin:round;stroke:rgb(0%,0%,0%);stroke-opacity:1;stroke-miterlimit:4;" d="M 416.992188 288.004557 C 414.029948 291.24349 410.384115 292.513021 405.989583 292.02474 C 400.16276 291.357422 394.026693 293.505859 388.476562 290.039062 C 387.988281 289.746094 386.946615 289.713542 386.539714 290.039062 C 380.680339 294.53125 373.486328 293.115234 366.959635 294.303385 C 358.105469 295.914714 349.088542 296.826172 340.00651 297.184245 C 336.279297 297.347005 332.19401 298.372396 329.427083 301.936849 C 327.799479 304.052734 325.211589 302.880859 322.998047 302.50651 C 314.92513 301.171875 307.942708 296.858724 300.634766 293.701172 C 294.954427 291.24349 289.469401 292.252604 283.984375 291.699219 C 274.544271 290.755208 265.152995 293.91276 255.436198 292.35026 C 251.72526 291.764323 247.428385 293.440755 243.505859 291.503906 " transform="matrix(0.24,0,0,0.24,0,0)"/>
<path style="fill:none;stroke-width:16;stroke-linecap:round;stroke-linejoin:round;stroke:rgb(0%,0%,0%);stroke-opacity:1;stroke-miterlimit:4;" d="M 120.996094 197.005208 C 120.003255 193.326823 118.847656 189.697266 118.033854 185.986328 C 116.845703 180.452474 113.98112 176.090495 108.968099 173.567708 C 104.101563 171.110026 99.251302 168.359375 93.505859 168.505859 " transform="matrix(0.24,0,0,0.24,0,0)"/>
<path style="fill:none;stroke-width:10;stroke-linecap:round;stroke-linejoin:round;stroke:rgb(0%,0%,0%);stroke-opacity:1;stroke-miterlimit:4;" d="M 382.503255 209.505208 C 383.658854 210.660807 384.619141 212.288411 386.035156 212.923177 C 397.444661 218.196615 397.054036 228.629557 396.777344 238.492839 C 396.630859 243.603516 397.395833 248.925781 395.198568 254.085286 C 394.189453 256.445312 397.005208 259.000651 398.632812 260.888672 C 400.325521 262.858073 400.569661 264.76237 400.504557 266.992188 " transform="matrix(0.24,0,0,0.24,0,0)"/>
<path style="fill:none;stroke-width:14;stroke-linecap:round;stroke-linejoin:round;stroke:rgb(0%,0%,0%);stroke-opacity:1;stroke-miterlimit:4;" d="M 39.501953 207.747396 C 40.332031 208.333333 41.341146 208.772786 41.975911 209.521484 C 46.305339 214.648438 51.334635 218.017578 58.51237 217.073568 C 60.107422 216.861979 61.88151 217.529297 63.492839 218.033854 C 69.44987 219.889323 74.21875 217.480469 75.976562 211.490885 C 76.985677 208.072917 78.645833 204.996745 80.452474 202.083333 C 78.955078 198.860677 77.587891 195.621745 75.976562 192.513021 C 70.39388 181.722005 60.758464 176.692708 49.495443 174.007161 " transform="matrix(0.24,0,0,0.24,0,0)"/>
<path style="fill:none;stroke-width:14;stroke-linecap:round;stroke-linejoin:round;stroke:rgb(0%,0%,0%);stroke-opacity:1;stroke-miterlimit:4;" d="M 197.998047 290.494792 C 191.992188 292.1875 186.01888 293.961589 180.46875 296.95638 C 179.248047 297.623698 178.173828 298.144531 177.473958 299.479167 C 171.598307 310.465495 161.409505 315.966797 150.488281 320.491536 C 147.867839 321.582031 145.166016 322.49349 142.496745 323.502604 " transform="matrix(0.24,0,0,0.24,0,0)"/>
<path style="fill:none;stroke-width:13;stroke-linecap:round;stroke-linejoin:round;stroke:rgb(0%,0%,0%);stroke-opacity:1;stroke-miterlimit:4;" d="M 250.992839 229.996745 C 256.08724 234.049479 256.038411 234.033203 253.531901 240.00651 C 252.799479 241.748047 251.822917 243.440755 251.969401 245.507813 C 252.42513 251.318359 251.627604 256.884766 248.551432 262.027995 C 247.867839 263.151042 247.835286 264.664714 247.49349 265.999349 " transform="matrix(0.24,0,0,0.24,0,0)"/>
<path style="fill:none;stroke-width:10;stroke-linecap:round;stroke-linejoin:round;stroke:rgb(0%,0%,0%);stroke-opacity:1;stroke-miterlimit:4;" d="M 159.505208 215.00651 C 158.984375 218.994141 157.19401 221.891276 153.564453 224.104818 C 149.788411 226.432292 150.032552 229.052734 151.383464 233.528646 C 153.466797 240.46224 154.215495 247.558594 149.495443 254.003906 " transform="matrix(0.24,0,0,0.24,0,0)"/>
<path style="fill:none;stroke-width:15;stroke-linecap:round;stroke-linejoin:round;stroke:rgb(0%,0%,0%);stroke-opacity:1;stroke-miterlimit:4;" d="M 75.992839 215.00651 C 78.841146 215.332031 81.656901 215.885417 84.505208 215.950521 C 91.064453 216.129557 95.654297 220.882161 96.061198 227.490234 C 96.500651 234.765625 93.473307 239.583333 88.264974 244.775391 C 81.608073 251.39974 74.414062 255.859375 65.494792 258.007812 " transform="matrix(0.24,0,0,0.24,0,0)"/>
<path style="fill:none;stroke-width:15;stroke-linecap:round;stroke-linejoin:round;stroke:rgb(0%,0%,0%);stroke-opacity:1;stroke-miterlimit:4;" d="M 226.757813 220.996094 C 226.074219 223.860677 222.639974 223.974609 221.451823 226.48112 C 219.742839 230.013021 217.740885 233.610026 219.580078 237.467448 C 222.070313 242.692057 223.876953 248.144531 225.992839 253.499349 " transform="matrix(0.24,0,0,0.24,0,0)"/>
<path style="fill:none;stroke-width:12;stroke-linecap:round;stroke-linejoin:round;stroke:rgb(0%,0%,0%);stroke-opacity:1;stroke-miterlimit:4;" d="M 153.499349 189.501953 C 150.846354 191.682943 147.363281 192.773438 145.47526 195.979818 C 142.480469 201.025391 137.597656 200.830078 133.040365 199.365234 C 129.378255 198.177083 125.472005 199.30013 121.972656 197.542318 C 121.468099 197.298177 120.703125 197.460938 119.970703 197.949219 C 114.013672 201.953125 107.03125 200.667318 100.488281 201.383464 C 94.042969 202.083333 87.5 201.839193 81.005859 202.001953 " transform="matrix(0.24,0,0,0.24,0,0)"/>
<path style="fill:none;stroke-width:15;stroke-linecap:round;stroke-linejoin:round;stroke:rgb(0%,0%,0%);stroke-opacity:1;stroke-miterlimit:4;" d="M 185.498047 215.494792 C 182.096354 215.690104 179.329427 214.729818 176.367188 212.679036 C 173.095703 210.416667 169.042969 208.984375 164.92513 212.402344 C 162.483724 214.420573 159.21224 214.778646 155.989583 213.509115 C 150.976562 211.539714 146.386719 212.320964 141.975911 215.46224 C 137.972005 218.294271 133.821615 220.882161 129.931641 223.909505 C 127.034505 226.139323 126.236979 228.841146 126.546224 231.998698 C 127.148438 238.183594 127.246094 244.319661 126.546224 250.504557 C 126.171875 253.841146 128.417969 256.526693 129.492188 259.505208 C 130.159505 261.328125 131.689453 263.36263 131.33138 264.957682 C 130.436198 269.026693 132.03125 273.030599 131.005859 277.001953 " transform="matrix(0.24,0,0,0.24,0,0)"/>
<path style="fill:none;stroke-width:3;stroke-linecap:round;stroke-linejoin:round;stroke:rgb(0%,0%,0%);stroke-opacity:1;stroke-miterlimit:4;" d="M 150.504557 268.994141 C 150.504557 272.314453 150.732422 275.813802 146.972656 277.457682 C 145.410156 278.141276 145.833333 279.589844 145.605469 280.517578 C 144.108073 286.751302 142.96875 293.033854 143.505859 299.495443 " transform="matrix(0.24,0,0,0.24,0,0)"/>
<path style="fill:none;stroke-width:13;stroke-linecap:round;stroke-linejoin:round;stroke:rgb(0%,0%,0%);stroke-opacity:1;stroke-miterlimit:4;" d="M 84.99349 250.504557 C 87.760417 254.60612 91.552734 257.97526 92.154948 263.476562 C 92.561849 267.26888 92.301432 270.345052 89.501953 272.998047 C 87.841797 274.576823 86.995443 275.94401 88.395182 278.548177 C 92.561849 286.376953 97.965495 292.122396 106.966146 294.645182 C 116.878255 297.412109 126.676432 300.374349 136.979167 301.692708 C 140.673828 302.18099 143.408203 300.390625 145.865885 299.21875 C 152.229818 296.240234 158.951823 296.272786 165.511068 295.035807 C 170.019531 294.189453 173.876953 296.044922 177.50651 298.502604 " transform="matrix(0.24,0,0,0.24,0,0)"/>
<path style="fill:none;stroke-width:12;stroke-linecap:round;stroke-linejoin:round;stroke:rgb(0%,0%,0%);stroke-opacity:1;stroke-miterlimit:4;" d="M 252.994792 202.001953 C 251.855469 207.958984 251.253255 213.850911 251.741536 220.019531 C 252.001953 223.404948 250.358073 227.50651 248.291016 230.338542 C 246.549479 232.714844 242.936198 231.33138 240.54362 229.931641 C 235.953776 227.26237 231.526693 224.316406 226.497396 222.49349 " transform="matrix(0.24,0,0,0.24,0,0)"/>
<path style="fill:none;stroke-width:8;stroke-linecap:round;stroke-linejoin:round;stroke:rgb(0%,0%,0%);stroke-opacity:1;stroke-miterlimit:4;" d="M 95.996094 236.995443 C 99.511719 237.890625 103.28776 238.590495 103.955078 243.001302 C 104.752604 248.258464 100.992839 255.273438 96.500651 257.503255 C 94.921875 258.284505 93.326823 259.049479 91.503906 259.000651 " transform="matrix(0.24,0,0,0.24,0,0)"/>
<path style="fill:none;stroke-width:5;stroke-linecap:round;stroke-linejoin:round;stroke:rgb(0%,0%,0%);stroke-opacity:1;stroke-miterlimit:4;" d="M 313.004557 198.502604 C 312.890625 202.067057 311.572266 204.76888 308.577474 207.096354 C 305.061849 209.830729 301.350911 212.451172 298.470052 215.966797 C 297.884115 216.682943 296.875 217.317708 295.996094 217.447917 C 289.453125 218.343099 285.400391 223.828125 279.557292 226.155599 C 274.169922 228.28776 272.688802 233.59375 273.111979 238.997396 C 273.323568 241.552734 273.502604 244.010417 272.998047 246.500651 C 271.630859 253.352865 274.804688 258.121745 279.996745 261.995443 " transform="matrix(0.24,0,0,0.24,0,0)"/>
<path style="fill:none;stroke-width:3;stroke-linecap:round;stroke-linejoin:round;stroke:rgb(0%,0%,0%);stroke-opacity:1;stroke-miterlimit:4;" d="M 215.00651 174.007161 C 214.648438 175.960286 212.613932 175.960286 211.442057 176.936849 C 208.105469 179.6875 206.510417 183.170573 208.642578 186.409505 C 210.384115 189.0625 212.711589 191.975911 217.02474 190.592448 C 218.505859 190.136719 220.328776 190.836589 222.005208 190.999349 " transform="matrix(0.24,0,0,0.24,0,0)"/>
<path style="fill:none;stroke-width:12;stroke-linecap:round;stroke-linejoin:round;stroke:rgb(0%,0%,0%);stroke-opacity:1;stroke-miterlimit:4;" d="M 375.992839 233.007813 C 372.054036 241.422526 372.281901 250.048828 375.634766 258.447266 C 376.871745 261.523438 376.871745 264.436849 377.001953 267.496745 " transform="matrix(0.24,0,0,0.24,0,0)"/>
<path style="fill:none;stroke-width:16;stroke-linecap:round;stroke-linejoin:round;stroke:rgb(0%,0%,0%);stroke-opacity:1;stroke-miterlimit:4;" d="M 19.498698 255.501302 C 23.893229 260.530599 28.841146 265.00651 34.554036 268.424479 C 37.841797 270.39388 41.455078 271.17513 45.540365 269.596354 C 50.537109 267.675781 55.875651 266.650391 60.970052 264.92513 C 63.085938 264.22526 64.453125 264.92513 65.999349 265.983073 C 72.428385 270.426432 79.52474 273.388672 86.995443 275.504557 " transform="matrix(0.24,0,0,0.24,0,0)"/>
<path style="fill:none;stroke-width:6;stroke-linecap:round;stroke-linejoin:round;stroke:rgb(0%,0%,0%);stroke-opacity:1;stroke-miterlimit:4;" d="M 396.500651 202.001953 C 398.339844 204.231771 400.797526 204.573568 403.499349 204.52474 C 408.170573 204.443359 412.841797 204.541016 417.496745 204.475911 C 419.661458 204.459635 421.728516 204.557292 423.502604 206.005859 " transform="matrix(0.24,0,0,0.24,0,0)"/>
<path style="fill:none;stroke-width:25;stroke-linecap:round;stroke-linejoin:round;stroke:rgb(0%,0%,0%);stroke-opacity:1;stroke-miterlimit:4;" d="M 367.496745 228.499349 C 370.540365 220.833333 373.714193 213.313802 381.461589 208.935547 C 383.105469 207.991536 382.714844 205.761719 383.056641 204.020182 C 383.854167 200.032552 385.791016 196.337891 384.635417 191.959635 C 384.033203 189.697266 383.414714 188.736979 381.005859 188.427734 C 376.269531 187.825521 371.468099 187.288411 367.02474 189.078776 C 355.517578 193.684896 344.726562 192.936198 334.505208 185.742188 " transform="matrix(0.24,0,0,0.24,0,0)"/>
<path style="fill:none;stroke-width:5;stroke-linecap:round;stroke-linejoin:round;stroke:rgb(0%,0%,0%);stroke-opacity:1;stroke-miterlimit:4;" d="M 431.494141 202.50651 C 423.763021 203.759766 421.17513 211.181641 416.031901 215.54362 C 414.632161 216.748047 415.380859 218.66862 416.064453 219.970703 C 417.903646 223.453776 420.084635 226.741536 421.728516 230.38737 C 422.542318 232.177734 425.813802 232.89388 428.011068 233.984375 C 429.117839 234.521484 430.338542 234.830729 431.494141 235.253906 " transform="matrix(0.24,0,0,0.24,0,0)"/>
<path style="fill:none;stroke-width:3;stroke-linecap:round;stroke-linejoin:round;stroke:rgb(0%,0%,0%);stroke-opacity:1;stroke-miterlimit:4;" d="M 358.007812 269.498698 C 358.789062 278.04362 361.80013 286.295573 361.507161 295.003255 " transform="matrix(0.24,0,0,0.24,0,0)"/>
<path style="fill:none;stroke-width:4;stroke-linecap:round;stroke-linejoin:round;stroke:rgb(0%,0%,0%);stroke-opacity:1;stroke-miterlimit:4;" d="M 188.492839 268.001302 C 188.492839 276.334635 188.492839 284.667969 188.492839 293.001302 " transform="matrix(0.24,0,0,0.24,0,0)"/>
<path style="fill:none;stroke-width:7;stroke-linecap:round;stroke-linejoin:round;stroke:rgb(0%,0%,0%);stroke-opacity:1;stroke-miterlimit:4;" d="M 131.998698 265.494792 C 138.997396 268.326823 146.110026 268.945312 153.515625 267.057292 C 157.73112 265.983073 160.758464 268.538411 161.523438 272.998047 C 162.727865 280.159505 165.869141 286.995443 165.00651 294.498698 " transform="matrix(0.24,0,0,0.24,0,0)"/>
<path style="fill:none;stroke-width:8;stroke-linecap:round;stroke-linejoin:round;stroke:rgb(0%,0%,0%);stroke-opacity:1;stroke-miterlimit:4;" d="M 120.507813 276.497396 C 125.179036 276.464844 129.899089 276.253255 134.277344 278.727214 C 135.611979 285.9375 132.8125 293.13151 133.007812 300.504557 " transform="matrix(0.24,0,0,0.24,0,0)"/>
<path style="fill:none;stroke-width:5;stroke-linecap:round;stroke-linejoin:round;stroke:rgb(0%,0%,0%);stroke-opacity:1;stroke-miterlimit:4;" d="M 175.504557 241.992188 C 172.102865 249.495443 172.851562 253.90625 178.483073 260.009766 C 179.443359 261.067708 180.338542 262.239583 180.973307 263.509115 C 182.877604 267.382812 185.839844 268.798828 189.469401 266.943359 C 192.122396 265.576172 194.498698 263.671875 197.005208 261.995443 " transform="matrix(0.24,0,0,0.24,0,0)"/>
<path style="fill:none;stroke-width:3;stroke-linecap:round;stroke-linejoin:round;stroke:rgb(0%,0%,0%);stroke-opacity:1;stroke-miterlimit:4;" d="M 253.499349 268.001302 C 253.336589 273.665365 252.539063 279.296875 253.352865 285.026042 C 253.678385 287.304688 254.882813 289.241536 254.996745 291.503906 " transform="matrix(0.24,0,0,0.24,0,0)"/>
<path style="fill:none;stroke-width:7;stroke-linecap:round;stroke-linejoin:round;stroke:rgb(0%,0%,0%);stroke-opacity:1;stroke-miterlimit:4;" d="M 242.496745 268.994141 C 234.798177 267.252604 227.115885 267.252604 219.498698 269.498698 " transform="matrix(0.24,0,0,0.24,0,0)"/>
<path style="fill:none;stroke-width:9;stroke-linecap:round;stroke-linejoin:round;stroke:rgb(0%,0%,0%);stroke-opacity:1;stroke-miterlimit:4;" d="M 319.742839 278.499349 C 319.840495 286.002604 319.921875 293.505859 320.003255 300.992839 " transform="matrix(0.24,0,0,0.24,0,0)"/>
<path style="fill:none;stroke-width:5;stroke-linecap:round;stroke-linejoin:round;stroke:rgb(0%,0%,0%);stroke-opacity:1;stroke-miterlimit:4;" d="M 200.504557 208.496094 C 197.81901 215.299479 197.509766 222.753906 194.677734 229.573568 C 193.701172 231.933594 194.319661 235.335286 195.14974 237.955729 C 195.947266 240.478516 195.068359 242.122396 193.896484 243.994141 C 190.136719 241.438802 185.758464 242.041016 181.494141 242.008464 C 174.332682 241.959635 172.005208 238.28125 174.446615 231.477865 C 176.302083 226.269531 178.873698 221.223958 179.003906 215.494792 " transform="matrix(0.24,0,0,0.24,0,0)"/>
<path style="fill:none;stroke-width:3;stroke-linecap:round;stroke-linejoin:round;stroke:rgb(0%,0%,0%);stroke-opacity:1;stroke-miterlimit:4;" d="M 275 216.992188 C 268.359375 222.167969 261.230469 224.641927 252.994792 220.996094 " transform="matrix(0.24,0,0,0.24,0,0)"/>
<path style="fill:none;stroke-width:17;stroke-linecap:round;stroke-linejoin:round;stroke:rgb(0%,0%,0%);stroke-opacity:1;stroke-miterlimit:4;" d="M 222.49349 202.001953 C 219.335938 204.833984 215.266927 206.119792 211.442057 207.291667 C 208.235677 208.284505 204.492188 207.503255 200.86263 207.503255 C 200.472005 207.19401 199.495443 206.738281 199.039714 205.973307 C 194.53125 198.307292 187.695312 195.166016 179.020182 194.287109 C 175.667318 193.945312 173.111979 194.954427 170.556641 196.126302 C 168.58724 197.054036 167.285156 197.412109 165.46224 196.061198 C 164.176432 195.100911 162.5 194.677734 161.002604 193.994141 C 152.880859 190.315755 152.522786 189.208984 155.940755 181.477865 C 157.03125 179.020182 160.009766 177.132161 158.951823 174.023438 C 157.405599 169.482422 155.436198 165.136719 151.529948 161.962891 C 150.358073 161.01888 149.495443 159.667969 148.502604 158.496094 " transform="matrix(0.24,0,0,0.24,0,0)"/>
<path style="fill:none;stroke-width:3;stroke-linecap:round;stroke-linejoin:round;stroke:rgb(0%,0%,0%);stroke-opacity:1;stroke-miterlimit:4;" d="M 206.998698 266.503906 C 207.161458 268.83138 207.552083 271.17513 207.454427 273.502604 C 207.242839 279.378255 204.671224 283.984375 199.495443 286.995443 " transform="matrix(0.24,0,0,0.24,0,0)"/>
<path style="fill:none;stroke-width:3;stroke-linecap:round;stroke-linejoin:round;stroke:rgb(0%,0%,0%);stroke-opacity:1;stroke-miterlimit:4;" d="M 318.001302 188.492839 C 318.229167 186.80013 318.994141 185.432943 319.889323 183.935547 C 322.151693 180.159505 319.514974 176.123047 315.00651 176.009115 C 311.669922 175.94401 308.317057 176.220703 305.013021 175.927734 C 302.750651 175.732422 302.067057 177.229818 300.992839 178.499349 " transform="matrix(0.24,0,0,0.24,0,0)"/>
<path style="fill:none;stroke-width:8;stroke-linecap:round;stroke-linejoin:round;stroke:rgb(0%,0%,0%);stroke-opacity:1;stroke-miterlimit:4;" d="M 130.501302 265.999349 C 126.871745 268.13151 122.884115 267.431641 118.994141 267.496745 C 110.31901 267.626953 101.627604 267.057292 93.001302 268.505859 " transform="matrix(0.24,0,0,0.24,0,0)"/>
<path style="fill:none;stroke-width:4;stroke-linecap:round;stroke-linejoin:round;stroke:rgb(0%,0%,0%);stroke-opacity:1;stroke-miterlimit:4;" d="M 278.499349 172.49349 C 278.499349 179.003906 278.450521 185.498047 278.531901 191.992188 C 278.548177 193.294271 278.255208 193.75 277.001953 193.505859 " transform="matrix(0.24,0,0,0.24,0,0)"/>
<path style="fill:none;stroke-width:16;stroke-linecap:round;stroke-linejoin:round;stroke:rgb(0%,0%,0%);stroke-opacity:1;stroke-miterlimit:4;" d="M 68.001302 220.003255 C 67.692057 225.113932 65.494792 229.573568 62.434896 233.447266 C 58.968099 237.825521 58.349609 241.992188 60.9375 247.03776 C 63.720703 252.457682 65.478516 258.235677 63.997396 264.501953 " transform="matrix(0.24,0,0,0.24,0,0)"/>
<path style="fill:none;stroke-width:4;stroke-linecap:round;stroke-linejoin:round;stroke:rgb(0%,0%,0%);stroke-opacity:1;stroke-miterlimit:4;" d="M 209.505208 169.498698 C 216.878255 173.339844 224.983724 173.763021 233.007813 174.462891 C 238.069661 174.902344 238.36263 175.195312 238.525391 180.501302 C 238.720703 186.328125 237.841797 192.1875 238.997396 197.998047 " transform="matrix(0.24,0,0,0.24,0,0)"/>
<path style="fill:none;stroke-width:10;stroke-linecap:round;stroke-linejoin:round;stroke:rgb(0%,0%,0%);stroke-opacity:1;stroke-miterlimit:4;" d="M 277.50651 268.505859 C 273.958333 265.511068 270.182292 267.789714 266.503906 268.05013 C 265.494792 268.115234 264.794922 269.791667 263.509115 268.977865 C 258.691406 265.901693 252.994792 268.782552 247.949219 266.601562 C 246.09375 265.804036 244.563802 267.96875 243.505859 268.652344 C 243.505859 275.16276 243.473307 281.33138 243.505859 287.5 C 243.522135 290.364583 242.366536 292.480469 239.485677 292.952474 C 229.215495 294.645182 219.173177 298.893229 208.51237 296.923828 C 201.497396 295.621745 198.844401 292.675781 198.502604 287.5 " transform="matrix(0.24,0,0,0.24,0,0)"/>
<path style="fill:none;stroke-width:6;stroke-linecap:round;stroke-linejoin:round;stroke:rgb(0%,0%,0%);stroke-opacity:1;stroke-miterlimit:4;" d="M 356.005859 193.001302 C 354.703776 198.893229 353.629557 204.866536 347.03776 207.584635 C 346.110026 207.958984 345.670573 209.505208 345.003255 210.498047 " transform="matrix(0.24,0,0,0.24,0,0)"/>
<path style="fill:none;stroke-width:3;stroke-linecap:round;stroke-linejoin:round;stroke:rgb(0%,0%,0%);stroke-opacity:1;stroke-miterlimit:4;" d="M 265.00651 175 C 263.085938 177.652995 263.964844 180.696615 264.078776 183.496094 C 264.388021 191.129557 263.004557 191.24349 256.494141 190.999349 " transform="matrix(0.24,0,0,0.24,0,0)"/>
<path style="fill:none;stroke-width:4;stroke-linecap:round;stroke-linejoin:round;stroke:rgb(0%,0%,0%);stroke-opacity:1;stroke-miterlimit:4;" d="M 308.496094 177.001953 C 308.837891 183.496094 309.163411 190.00651 309.505208 196.500651 " transform="matrix(0.24,0,0,0.24,0,0)"/>
<path style="fill:none;stroke-width:7;stroke-linecap:round;stroke-linejoin:round;stroke:rgb(0%,0%,0%);stroke-opacity:1;stroke-miterlimit:4;" d="M 294.498698 276.497396 C 297.688802 276.676432 300.813802 276.416016 304.036458 277.360026 C 307.014974 278.222656 308.154297 279.703776 307.97526 282.503255 C 307.714844 286.832682 307.340495 291.162109 306.998698 295.507812 " transform="matrix(0.24,0,0,0.24,0,0)"/>
<path style="fill:none;stroke-width:4;stroke-linecap:round;stroke-linejoin:round;stroke:rgb(0%,0%,0%);stroke-opacity:1;stroke-miterlimit:4;" d="M 421.500651 231.998698 C 417.10612 235.85612 413.850911 240.332031 414.046224 246.500651 C 414.078776 247.639974 413.395182 248.763021 414.453125 250.048828 C 418.408203 254.899089 418.066406 259.781901 414.029948 264.518229 C 413.476563 265.169271 413.330078 266.162109 413.004557 266.992188 " transform="matrix(0.24,0,0,0.24,0,0)"/>
<path style="fill:none;stroke-width:5;stroke-linecap:round;stroke-linejoin:round;stroke:rgb(0%,0%,0%);stroke-opacity:1;stroke-miterlimit:4;" d="M 288.004557 265.00651 C 288.704427 269.091797 286.832682 272.949219 286.962891 277.001953 C 287.158203 283.219401 287.841797 283.935547 293.994141 284.033203 C 295.491536 284.065755 297.102865 283.382161 298.502604 284.505208 " transform="matrix(0.24,0,0,0.24,0,0)"/>
<path style="fill:none;stroke-width:4;stroke-linecap:round;stroke-linejoin:round;stroke:rgb(0%,0%,0%);stroke-opacity:1;stroke-miterlimit:4;" d="M 292.496745 174.495443 C 292.643229 180.224609 292.415365 185.888672 291.097005 191.520182 C 290.70638 193.164062 290.185547 194.417318 288.997396 195.507812 " transform="matrix(0.24,0,0,0.24,0,0)"/>
<path style="fill:none;stroke-width:9;stroke-linecap:round;stroke-linejoin:round;stroke:rgb(0%,0%,0%);stroke-opacity:1;stroke-miterlimit:4;" d="M 341.503906 266.503906 C 337.174479 266.992188 332.828776 267.513021 328.499349 268.001302 C 317.057292 269.303385 306.266276 267.089844 295.979818 262.027995 C 294.921875 261.490885 292.952474 260.709635 292.610677 261.10026 C 289.485677 264.632161 284.960938 264.92513 280.989583 266.48763 C 277.718099 267.789714 276.888021 270.410156 277.555339 273.486328 C 278.20638 276.513672 278.076172 279.492188 277.750651 282.503255 " transform="matrix(0.24,0,0,0.24,0,0)"/>
<path style="fill:none;stroke-width:5;stroke-linecap:round;stroke-linejoin:round;stroke:rgb(0%,0%,0%);stroke-opacity:1;stroke-miterlimit:4;" d="M 320.507812 236.995443 C 320.670573 240.836589 317.740885 243.66862 317.333984 247.477214 C 316.796875 252.522786 317.041016 254.264323 320.996094 256.005859 C 324.674479 257.633464 327.34375 255.289714 328.82487 252.897135 C 330.582682 250.016276 331.136068 246.370443 331.884766 242.96875 C 332.03125 242.317708 330.664062 241.341146 329.996745 240.494792 " transform="matrix(0.24,0,0,0.24,0,0)"/>
<path style="fill:none;stroke-width:6;stroke-linecap:round;stroke-linejoin:round;stroke:rgb(0%,0%,0%);stroke-opacity:1;stroke-miterlimit:4;" d="M 175.992839 229.996745 C 181.803385 231.070964 187.66276 230.224609 193.505859 230.501302 " transform="matrix(0.24,0,0,0.24,0,0)"/>
<path style="fill:none;stroke-width:5;stroke-linecap:round;stroke-linejoin:round;stroke:rgb(0%,0%,0%);stroke-opacity:1;stroke-miterlimit:4;" d="M 193.994141 244.498698 C 195.068359 246.533203 195.361328 248.779297 195.47526 251.009115 C 195.963542 261.002604 197.233073 262.597656 207.503255 265.511068 C 208.007813 265.641276 208.496094 265.950521 209.000651 265.983073 C 215.592448 266.40625 219.335938 268.652344 219.807943 276.48112 C 220.247396 284.163411 222.65625 284.488932 228.499349 284.049479 C 229.801432 283.951823 231.282552 283.447266 232.503255 284.505208 " transform="matrix(0.24,0,0,0.24,0,0)"/>
<path style="fill:none;stroke-width:3;stroke-linecap:round;stroke-linejoin:round;stroke:rgb(0%,0%,0%);stroke-opacity:1;stroke-miterlimit:4;" d="M 182.503255 279.492188 C 181.542969 285.123698 180.63151 290.755208 181.005859 296.500651 " transform="matrix(0.24,0,0,0.24,0,0)"/>
<path style="fill:none;stroke-width:3;stroke-linecap:round;stroke-linejoin:round;stroke:rgb(0%,0%,0%);stroke-opacity:1;stroke-miterlimit:4;" d="M 222.005208 174.495443 C 222.998047 179.638672 225.179036 184.635417 222.607422 190.055339 C 221.614583 192.122396 223.453776 193.994141 225 195.507812 " transform="matrix(0.24,0,0,0.24,0,0)"/>
<path style="fill:none;stroke-width:2;stroke-linecap:round;stroke-linejoin:round;stroke:rgb(0%,0%,0%);stroke-opacity:1;stroke-miterlimit:4;" d="M 270.507812 172.998047 C 270.410156 174.91862 270.849609 176.676432 271.402995 178.531901 C 272.477214 182.014974 274.707031 186.116536 268.082682 187.451172 C 270.426432 190.201823 272.867839 190.852865 275 191.992188 " transform="matrix(0.24,0,0,0.24,0,0)"/>
<path style="fill:none;stroke-width:2;stroke-linecap:round;stroke-linejoin:round;stroke:rgb(0%,0%,0%);stroke-opacity:1;stroke-miterlimit:4;" d="M 413.004557 249.007161 C 407.926432 247.558594 402.473958 250.08138 397.49349 247.49349 " transform="matrix(0.24,0,0,0.24,0,0)"/>
<path style="fill:none;stroke-width:3;stroke-linecap:round;stroke-linejoin:round;stroke:rgb(0%,0%,0%);stroke-opacity:1;stroke-miterlimit:4;" d="M 202.994792 176.497396 C 201.953125 177.880859 203.04362 180.452474 200.488281 181.005859 C 198.51888 179.996745 200.309245 177.734375 198.453776 175.992839 C 195.524089 175.846354 191.992188 176.220703 188.476562 175.651042 C 185.514323 175.179036 183.105469 177.783203 183.186849 180.485026 C 183.317057 183.821615 185.693359 186.10026 189.501953 186.002604 " transform="matrix(0.24,0,0,0.24,0,0)"/>
<path style="fill:none;stroke-width:3;stroke-linecap:round;stroke-linejoin:round;stroke:rgb(0%,0%,0%);stroke-opacity:1;stroke-miterlimit:4;" d="M 170.507812 279.492188 C 170.784505 284.684245 172.477214 289.746094 172.005208 295.003255 " transform="matrix(0.24,0,0,0.24,0,0)"/>
<path style="fill:none;stroke-width:2;stroke-linecap:round;stroke-linejoin:round;stroke:rgb(0%,0%,0%);stroke-opacity:1;stroke-miterlimit:4;" d="M 208.007813 188.492839 C 201.855469 195.133464 203.401693 185.31901 200.325521 184.830729 C 198.828125 187.467448 199.30013 191.601562 195.003255 191.992188 " transform="matrix(0.24,0,0,0.24,0,0)"/>
<path style="fill:none;stroke-width:8;stroke-linecap:round;stroke-linejoin:round;stroke:rgb(0%,0%,0%);stroke-opacity:1;stroke-miterlimit:4;" d="M 181.494141 266.503906 C 178.90625 267.399089 176.64388 268.408203 173.453776 267.740885 C 169.661458 266.959635 165.380859 266.764323 161.507161 268.505859 " transform="matrix(0.24,0,0,0.24,0,0)"/>
<path style="fill:none;stroke-width:5;stroke-linecap:round;stroke-linejoin:round;stroke:rgb(0%,0%,0%);stroke-opacity:1;stroke-miterlimit:4;" d="M 394.498698 269.498698 C 394.173177 274.05599 394.140625 278.727214 397.102865 282.421875 C 398.909505 284.667969 395.849609 286.621094 397.49349 288.492839 " transform="matrix(0.24,0,0,0.24,0,0)"/>
<path style="fill:none;stroke-width:3;stroke-linecap:round;stroke-linejoin:round;stroke:rgb(0%,0%,0%);stroke-opacity:1;stroke-miterlimit:4;" d="M 228.499349 182.503255 C 229.947917 187.223307 231.608073 191.910807 231.005859 197.005208 " transform="matrix(0.24,0,0,0.24,0,0)"/>
<path style="fill:none;stroke-width:6;stroke-linecap:round;stroke-linejoin:round;stroke:rgb(0%,0%,0%);stroke-opacity:1;stroke-miterlimit:4;" d="M 343.001302 268.001302 C 344.010417 272.672526 343.294271 277.050781 341.601562 281.542969 C 339.794922 286.328125 341.341146 291.503906 340.999349 296.500651 " transform="matrix(0.24,0,0,0.24,0,0)"/>
<path style="fill:none;stroke-width:3;stroke-linecap:round;stroke-linejoin:round;stroke:rgb(0%,0%,0%);stroke-opacity:1;stroke-miterlimit:4;" d="M 193.505859 177.001953 C 192.936198 181.656901 195.052083 186.328125 193.115234 191.048177 C 192.431641 192.692057 191.699219 194.352214 190.999349 195.996094 " transform="matrix(0.24,0,0,0.24,0,0)"/>
<path style="fill:none;stroke-width:6;stroke-linecap:round;stroke-linejoin:round;stroke:rgb(0%,0%,0%);stroke-opacity:1;stroke-miterlimit:4;" d="M 115.494792 200.992839 C 115.494792 210.498047 115.494792 220.003255 115.494792 229.492188 " transform="matrix(0.24,0,0,0.24,0,0)"/>
<path style="fill:none;stroke-width:2;stroke-linecap:round;stroke-linejoin:round;stroke:rgb(0%,0%,0%);stroke-opacity:1;stroke-miterlimit:4;" d="M 296.500651 370.507812 C 296.419271 369.205729 298.404948 369.042969 298.030599 367.496745 C 297.49349 365.283203 297.151693 363.167318 293.994141 363.460286 C 290.722656 363.769531 291.617839 366.113281 291.503906 368.001302 C 291.422526 369.417318 292.26888 370.117188 293.505859 370.507812 " transform="matrix(0.24,0,0,0.24,0,0)"/>
<path style="fill:none;stroke-width:8;stroke-linecap:round;stroke-linejoin:round;stroke:rgb(0%,0%,0%);stroke-opacity:1;stroke-miterlimit:4;" d="M 418.001302 271.500651 C 415.625 268.733724 413.134766 267.513021 408.984375 267.740885 C 402.555339 268.115234 395.996094 269.010417 389.485677 267.594401 C 386.490885 266.943359 383.317057 267.399089 380.501302 268.994141 " transform="matrix(0.24,0,0,0.24,0,0)"/>
<path style="fill:none;stroke-width:4;stroke-linecap:round;stroke-linejoin:round;stroke:rgb(0%,0%,0%);stroke-opacity:1;stroke-miterlimit:4;" d="M 242.496745 277.001953 C 237.825521 276.839193 233.170573 276.660156 228.499349 276.497396 " transform="matrix(0.24,0,0,0.24,0,0)"/>
<path style="fill:none;stroke-width:7;stroke-linecap:round;stroke-linejoin:round;stroke:rgb(0%,0%,0%);stroke-opacity:1;stroke-miterlimit:4;" d="M 330.501302 285.498047 C 331.94987 289.892578 332.19401 294.417318 331.998698 299.007161 " transform="matrix(0.24,0,0,0.24,0,0)"/>
<path style="fill:none;stroke-width:6;stroke-linecap:round;stroke-linejoin:round;stroke:rgb(0%,0%,0%);stroke-opacity:1;stroke-miterlimit:4;" d="M 176.497396 268.994141 C 176.497396 273.160807 176.497396 277.327474 176.497396 281.494141 " transform="matrix(0.24,0,0,0.24,0,0)"/>
<path style="fill:none;stroke-width:6;stroke-linecap:round;stroke-linejoin:round;stroke:rgb(0%,0%,0%);stroke-opacity:1;stroke-miterlimit:4;" d="M 285.498047 173.502604 C 285.498047 177.50651 285.498047 181.494141 285.498047 185.498047 " transform="matrix(0.24,0,0,0.24,0,0)"/>
<path style="fill:none;stroke-width:3;stroke-linecap:round;stroke-linejoin:round;stroke:rgb(0%,0%,0%);stroke-opacity:1;stroke-miterlimit:4;" d="M 222.49349 284.000651 C 222.49349 288.004557 222.49349 291.992188 222.49349 295.996094 " transform="matrix(0.24,0,0,0.24,0,0)"/>
<path style="fill:none;stroke-width:5;stroke-linecap:round;stroke-linejoin:round;stroke:rgb(0%,0%,0%);stroke-opacity:1;stroke-miterlimit:4;" d="M 102.50651 283.007812 C 108.219401 285.23763 114.192708 283.235677 120.003255 283.951823 C 122.135417 284.228516 124.332682 284.000651 126.497396 284.000651 " transform="matrix(0.24,0,0,0.24,0,0)"/>
<path style="fill:none;stroke-width:4;stroke-linecap:round;stroke-linejoin:round;stroke:rgb(0%,0%,0%);stroke-opacity:1;stroke-miterlimit:4;" d="M 291.992188 228.499349 C 296.468099 234.505208 294.677734 240.494792 291.992188 246.500651 " transform="matrix(0.24,0,0,0.24,0,0)"/>
<path style="fill:none;stroke-width:3;stroke-linecap:round;stroke-linejoin:round;stroke:rgb(0%,0%,0%);stroke-opacity:1;stroke-miterlimit:4;" d="M 113.004557 278.499349 C 115.478516 280.891927 113.948568 283.805339 113.997396 286.507161 C 114.029948 289.664714 113.997396 292.838542 113.997396 295.996094 " transform="matrix(0.24,0,0,0.24,0,0)"/>
<path style="fill:none;stroke-width:2;stroke-linecap:round;stroke-linejoin:round;stroke:rgb(0%,0%,0%);stroke-opacity:1;stroke-miterlimit:4;" d="M 234.505208 364.501953 C 233.219401 363.964844 232.014974 362.727865 230.436198 363.916016 C 230.533854 366.780599 234.863281 367.236328 234.000651 370.507812 " transform="matrix(0.24,0,0,0.24,0,0)"/>
<path style="fill:none;stroke-width:5;stroke-linecap:round;stroke-linejoin:round;stroke:rgb(0%,0%,0%);stroke-opacity:1;stroke-miterlimit:4;" d="M 409.505208 284.000651 C 405.826823 284.000651 402.164714 284.000651 398.502604 284.000651 " transform="matrix(0.24,0,0,0.24,0,0)"/>
<path style="fill:none;stroke-width:3;stroke-linecap:round;stroke-linejoin:round;stroke:rgb(0%,0%,0%);stroke-opacity:1;stroke-miterlimit:4;" d="M 249.007161 177.001953 C 249.169922 183.837891 249.332682 190.673828 249.495443 197.49349 " transform="matrix(0.24,0,0,0.24,0,0)"/>
<path style="fill:none;stroke-width:12;stroke-linecap:round;stroke-linejoin:round;stroke:rgb(0%,0%,0%);stroke-opacity:1;stroke-miterlimit:4;" d="M 259.505208 168.994141 C 266.210938 171.988932 273.421224 171.565755 280.501302 171.988932 C 286.035156 172.314453 291.455078 172.884115 296.516927 175.455729 C 298.014323 176.204427 299.072266 177.229818 300 178.499349 " transform="matrix(0.24,0,0,0.24,0,0)"/>
<path style="fill:none;stroke-width:5;stroke-linecap:round;stroke-linejoin:round;stroke:rgb(0%,0%,0%);stroke-opacity:1;stroke-miterlimit:4;" d="M 111.995443 277.001953 C 109.505208 276.757812 106.982422 277.408854 104.492188 276.546224 C 102.945964 276.009115 102.880859 277.555339 102.50651 278.499349 " transform="matrix(0.24,0,0,0.24,0,0)"/>
<path style="fill:none;stroke-width:3;stroke-linecap:round;stroke-linejoin:round;stroke:rgb(0%,0%,0%);stroke-opacity:1;stroke-miterlimit:4;" d="M 259.000651 181.998698 C 254.215495 173.291016 246.25651 176.188151 238.997396 176.497396 " transform="matrix(0.24,0,0,0.24,0,0)"/>
<path style="fill:none;stroke-width:2;stroke-linecap:round;stroke-linejoin:round;stroke:rgb(0%,0%,0%);stroke-opacity:1;stroke-miterlimit:4;" d="M 303.499349 183.496094 C 303.336589 186.995443 303.173828 190.494792 302.994792 193.994141 " transform="matrix(0.24,0,0,0.24,0,0)"/>
<path style="fill:none;stroke-width:2;stroke-linecap:round;stroke-linejoin:round;stroke:rgb(0%,0%,0%);stroke-opacity:1;stroke-miterlimit:4;" d="M 304.492188 266.503906 C 304.492188 270.003255 304.492188 273.502604 304.492188 277.001953 " transform="matrix(0.24,0,0,0.24,0,0)"/>
<path style="fill:none;stroke-width:3;stroke-linecap:round;stroke-linejoin:round;stroke:rgb(0%,0%,0%);stroke-opacity:1;stroke-miterlimit:4;" d="M 231.494141 175.504557 C 231.152344 178.417969 233.170573 180.745443 233.496094 183.496094 " transform="matrix(0.24,0,0,0.24,0,0)"/>
<path style="fill:none;stroke-width:2;stroke-linecap:round;stroke-linejoin:round;stroke:rgb(0%,0%,0%);stroke-opacity:1;stroke-miterlimit:4;" d="M 158.496094 259.505208 C 156.16862 261.263021 155.452474 263.720703 155.501302 266.503906 " transform="matrix(0.24,0,0,0.24,0,0)"/>
<path style="fill:none;stroke-width:4;stroke-linecap:round;stroke-linejoin:round;stroke:rgb(0%,0%,0%);stroke-opacity:1;stroke-miterlimit:4;" d="M 254.492188 183.496094 C 256.966146 188.020833 256.494141 192.1875 252.994792 195.996094 " transform="matrix(0.24,0,0,0.24,0,0)"/>
<path style="fill:none;stroke-width:3;stroke-linecap:round;stroke-linejoin:round;stroke:rgb(0%,0%,0%);stroke-opacity:1;stroke-miterlimit:4;" d="M 263.004557 349.495443 C 263.004557 351.839193 263.004557 354.166667 263.004557 356.494141 " transform="matrix(0.24,0,0,0.24,0,0)"/>
<path style="fill:none;stroke-width:3;stroke-linecap:round;stroke-linejoin:round;stroke:rgb(0%,0%,0%);stroke-opacity:1;stroke-miterlimit:4;" d="M 268.001302 284.505208 C 269.303385 286.669922 271.01237 288.688151 270.507812 291.503906 " transform="matrix(0.24,0,0,0.24,0,0)"/>
<path style="fill:none;stroke-width:3;stroke-linecap:round;stroke-linejoin:round;stroke:rgb(0%,0%,0%);stroke-opacity:1;stroke-miterlimit:4;" d="M 114.501953 268.505859 C 114.518229 270.947266 114.518229 273.388672 113.004557 275.504557 " transform="matrix(0.24,0,0,0.24,0,0)"/>
<path style="fill:none;stroke-width:3;stroke-linecap:round;stroke-linejoin:round;stroke:rgb(0%,0%,0%);stroke-opacity:1;stroke-miterlimit:4;" d="M 263.004557 175.992839 C 259.830729 175.016276 259.000651 177.392578 258.007812 179.492188 " transform="matrix(0.24,0,0,0.24,0,0)"/>
<path style="fill:none;stroke-width:5;stroke-linecap:round;stroke-linejoin:round;stroke:rgb(0%,0%,0%);stroke-opacity:1;stroke-miterlimit:4;" d="M 122.49349 214.501953 C 117.838542 215.185547 113.167318 215.185547 108.496094 214.501953 " transform="matrix(0.24,0,0,0.24,0,0)"/>
<path style="fill:none;stroke-width:3;stroke-linecap:round;stroke-linejoin:round;stroke:rgb(0%,0%,0%);stroke-opacity:1;stroke-miterlimit:4;" d="M 288.492839 284.000651 C 287.532552 286.116536 286.002604 288.020833 286.002604 290.494792 " transform="matrix(0.24,0,0,0.24,0,0)"/>
<path style="fill:none;stroke-width:3;stroke-linecap:round;stroke-linejoin:round;stroke:rgb(0%,0%,0%);stroke-opacity:1;stroke-miterlimit:4;" d="M 259.000651 364.501953 C 259.000651 366.503906 259.000651 368.505859 259.000651 370.507812 " transform="matrix(0.24,0,0,0.24,0,0)"/>
<path style="fill:none;stroke-width:2;stroke-linecap:round;stroke-linejoin:round;stroke:rgb(0%,0%,0%);stroke-opacity:1;stroke-miterlimit:4;" d="M 225.504557 349.495443 C 227.18099 347.623698 229.117839 348.567708 231.673177 349.153646 C 228.222656 350.813802 228.401693 354.785156 225.504557 356.494141 " transform="matrix(0.24,0,0,0.24,0,0)"/>
<path style="fill:none;stroke-width:2;stroke-linecap:round;stroke-linejoin:round;stroke:rgb(0%,0%,0%);stroke-opacity:1;stroke-miterlimit:4;" d="M 322.49349 268.994141 C 321.500651 271.110026 324.283854 273.502604 322.005208 275.504557 " transform="matrix(0.24,0,0,0.24,0,0)"/>
<path style="fill:none;stroke-width:3;stroke-linecap:round;stroke-linejoin:round;stroke:rgb(0%,0%,0%);stroke-opacity:1;stroke-miterlimit:4;" d="M 281.998698 356.005859 C 281.005859 353.059896 276.318359 352.571615 277.001953 348.502604 " transform="matrix(0.24,0,0,0.24,0,0)"/>
<path style="fill:none;stroke-width:3;stroke-linecap:round;stroke-linejoin:round;stroke:rgb(0%,0%,0%);stroke-opacity:1;stroke-miterlimit:4;" d="M 249.007161 356.005859 C 247.998047 353.059896 243.310547 352.571615 243.994141 348.502604 " transform="matrix(0.24,0,0,0.24,0,0)"/>
<path style="fill:none;stroke-width:2;stroke-linecap:round;stroke-linejoin:round;stroke:rgb(0%,0%,0%);stroke-opacity:1;stroke-miterlimit:4;" d="M 209.000651 365.494792 C 207.942708 367.073568 208.772786 368.847656 208.496094 370.507812 " transform="matrix(0.24,0,0,0.24,0,0)"/>
<path style="fill:none;stroke-width:2;stroke-linecap:round;stroke-linejoin:round;stroke:rgb(0%,0%,0%);stroke-opacity:1;stroke-miterlimit:4;" d="M 294.498698 348.502604 C 296.435547 350.878906 295.540365 353.450521 295.003255 356.005859 " transform="matrix(0.24,0,0,0.24,0,0)"/>
<path style="fill:none;stroke-width:2;stroke-linecap:round;stroke-linejoin:round;stroke:rgb(0%,0%,0%);stroke-opacity:1;stroke-miterlimit:4;" d="M 303.499349 364.501953 C 303.82487 367.626953 306.445312 368.83138 308.496094 370.507812 " transform="matrix(0.24,0,0,0.24,0,0)"/>
<path style="fill:none;stroke-width:2;stroke-linecap:round;stroke-linejoin:round;stroke:rgb(0%,0%,0%);stroke-opacity:1;stroke-miterlimit:4;" d="M 208.496094 363.492839 C 210.335286 365.494792 212.174479 367.496745 213.997396 369.498698 " transform="matrix(0.24,0,0,0.24,0,0)"/>
<path style="fill:none;stroke-width:3;stroke-linecap:round;stroke-linejoin:round;stroke:rgb(0%,0%,0%);stroke-opacity:1;stroke-miterlimit:4;" d="M 325.992839 348.502604 C 325.992839 351.171875 325.992839 353.841146 325.992839 356.494141 " transform="matrix(0.24,0,0,0.24,0,0)"/>
<path style="fill:none;stroke-width:3;stroke-linecap:round;stroke-linejoin:round;stroke:rgb(0%,0%,0%);stroke-opacity:1;stroke-miterlimit:4;" d="M 320.996094 348.502604 C 320.996094 351.171875 320.996094 353.841146 320.996094 356.494141 " transform="matrix(0.24,0,0,0.24,0,0)"/>
<path style="fill:none;stroke-width:3;stroke-linecap:round;stroke-linejoin:round;stroke:rgb(0%,0%,0%);stroke-opacity:1;stroke-miterlimit:4;" d="M 300 348.502604 C 300 351.171875 300 353.841146 300 356.494141 " transform="matrix(0.24,0,0,0.24,0,0)"/>
<path style="fill:none;stroke-width:2;stroke-linecap:round;stroke-linejoin:round;stroke:rgb(0%,0%,0%);stroke-opacity:1;stroke-miterlimit:4;" d="M 300.504557 179.492188 C 300.504557 180.826823 300.504557 182.161458 300.504557 183.496094 " transform="matrix(0.24,0,0,0.24,0,0)"/>
<path style="fill:none;stroke-width:3;stroke-linecap:round;stroke-linejoin:round;stroke:rgb(0%,0%,0%);stroke-opacity:1;stroke-miterlimit:4;" d="M 306.998698 349.495443 C 306.136068 352.522786 309.407552 353.645833 309.99349 356.005859 " transform="matrix(0.24,0,0,0.24,0,0)"/>
<path style="fill:none;stroke-width:2;stroke-linecap:round;stroke-linejoin:round;stroke:rgb(0%,0%,0%);stroke-opacity:1;stroke-miterlimit:4;" d="M 261.507161 363.492839 C 259.505208 363.492839 257.503255 363.492839 255.501302 363.492839 " transform="matrix(0.24,0,0,0.24,0,0)"/>
<path style="fill:none;stroke-width:2;stroke-linecap:round;stroke-linejoin:round;stroke:rgb(0%,0%,0%);stroke-opacity:1;stroke-miterlimit:4;" d="M 265.494792 349.495443 C 263.671875 348.111979 261.539714 348.60026 259.505208 348.502604 " transform="matrix(0.24,0,0,0.24,0,0)"/>
<path style="fill:none;stroke-width:2;stroke-linecap:round;stroke-linejoin:round;stroke:rgb(0%,0%,0%);stroke-opacity:1;stroke-miterlimit:4;" d="M 220.996094 350.504557 C 221.663411 352.327474 222.330729 354.166667 222.998047 356.005859 " transform="matrix(0.24,0,0,0.24,0,0)"/>
<path style="fill:none;stroke-width:2;stroke-linecap:round;stroke-linejoin:round;stroke:rgb(0%,0%,0%);stroke-opacity:1;stroke-miterlimit:4;" d="M 221.500651 352.994792 C 219.905599 353.873698 217.073568 353.320312 217.496745 356.494141 " transform="matrix(0.24,0,0,0.24,0,0)"/>
</g>
</svg>
