<?xml version="1.0" encoding="UTF-8"?>
<svg xmlns="http://www.w3.org/2000/svg" xmlns:xlink="http://www.w3.org/1999/xlink" width="50px" height="50px" viewBox="0 0 50 50" version="1.1">
<g id="surface1">
<path style=" stroke:none;fill-rule:nonzero;fill:rgb(0%,0%,0%);fill-opacity:1;" d="M 11.199219 4.835938 C 8.117188 4.882812 7.960938 4.902344 7.054688 5.46875 C 6.199219 5.992188 5.757812 6.492188 5.253906 7.488281 L 4.894531 8.210938 L 4.917969 14.035156 C 4.941406 19.832031 4.949219 19.871094 5.109375 20.351562 C 5.539062 21.640625 6.753906 22.789062 8.09375 23.171875 C 8.476562 23.28125 9.066406 23.300781 12.917969 23.324219 C 18.027344 23.359375 19.871094 23.292969 20.515625 23.054688 C 21.632812 22.636719 22.585938 21.699219 23.066406 20.566406 C 23.289062 20.050781 23.300781 19.9375 23.359375 18.734375 C 23.398438 18.03125 23.410156 15.492188 23.398438 13.101562 C 23.367188 9.441406 23.339844 8.664062 23.242188 8.242188 C 22.890625 6.746094 21.792969 5.554688 20.316406 5.070312 C 19.746094 4.890625 19.644531 4.882812 17.820312 4.851562 C 16.773438 4.835938 15.472656 4.824219 14.929688 4.808594 C 14.386719 4.800781 12.703125 4.816406 11.199219 4.835938 Z M 19.035156 7.824219 C 19.472656 7.867188 19.648438 7.925781 19.855469 8.078125 C 20.425781 8.519531 20.382812 8.027344 20.382812 14.101562 L 20.382812 19.53125 L 20.089844 19.832031 C 19.460938 20.484375 20.007812 20.433594 14.109375 20.402344 C 9.058594 20.382812 8.882812 20.375 8.597656 20.234375 C 8.4375 20.15625 8.210938 19.941406 8.085938 19.773438 L 7.867188 19.453125 L 7.867188 8.738281 L 8.066406 8.429688 C 8.300781 8.085938 8.535156 7.910156 8.878906 7.832031 C 9.191406 7.75 18.324219 7.75 19.035156 7.824219 Z M 19.035156 7.824219 "/>
<path style=" stroke:none;fill-rule:nonzero;fill:rgb(0%,0%,0%);fill-opacity:1;" d="M 33.042969 4.84375 C 31.558594 4.867188 30.238281 4.910156 30.117188 4.941406 C 30 4.96875 29.601562 5.128906 29.238281 5.304688 C 28.160156 5.816406 27.570312 6.476562 27.0625 7.707031 L 26.84375 8.234375 L 26.769531 11.191406 C 26.71875 13.160156 26.71875 15.097656 26.769531 17.042969 C 26.84375 19.847656 26.851562 19.957031 27.019531 20.433594 C 27.277344 21.113281 27.597656 21.589844 28.175781 22.125 C 28.769531 22.671875 29.355469 23.003906 30.050781 23.175781 C 30.511719 23.292969 31.03125 23.308594 36.042969 23.308594 C 42.132812 23.308594 41.957031 23.316406 42.914062 22.820312 C 43.605469 22.453125 44.402344 21.613281 44.765625 20.851562 C 45.285156 19.796875 45.265625 20.046875 45.257812 13.867188 L 45.25 8.304688 L 45.007812 7.757812 C 44.414062 6.394531 43.457031 5.488281 42.191406 5.070312 C 41.648438 4.902344 41.480469 4.882812 40.03125 4.859375 C 36.671875 4.800781 35.664062 4.792969 33.042969 4.84375 Z M 40.851562 7.824219 C 41.539062 7.882812 41.824219 8.027344 42.15625 8.488281 C 42.308594 8.710938 42.316406 8.746094 42.351562 13.925781 L 42.394531 19.144531 L 42.148438 19.613281 C 41.832031 20.207031 41.6875 20.265625 40.367188 20.359375 C 38.949219 20.457031 31.105469 20.390625 30.65625 20.28125 C 30.445312 20.222656 30.234375 20.097656 30.070312 19.9375 C 29.859375 19.714844 29.824219 19.621094 29.773438 19.152344 C 29.75 18.867188 29.71875 16.421875 29.71875 13.738281 C 29.714844 9.652344 29.726562 8.820312 29.816406 8.652344 C 29.984375 8.335938 30.480469 7.898438 30.753906 7.832031 C 31.066406 7.757812 40.011719 7.75 40.851562 7.824219 Z M 40.851562 7.824219 "/>
<path style=" stroke:none;fill-rule:nonzero;fill:rgb(0%,0%,0%);fill-opacity:1;" d="M 32.898438 26.777344 L 30.042969 26.828125 L 29.597656 27.019531 C 28.074219 27.664062 27.042969 28.9375 26.859375 30.402344 C 26.75 31.265625 26.757812 40.808594 26.859375 41.605469 C 27.042969 42.960938 27.980469 44.136719 29.472656 44.890625 L 30.003906 45.15625 L 35.808594 45.15625 C 40.785156 45.15625 41.671875 45.140625 42.042969 45.046875 C 43.371094 44.695312 44.527344 43.589844 45.015625 42.183594 C 45.25 41.511719 45.324219 39.402344 45.28125 34.726562 C 45.234375 30.210938 45.222656 30.101562 44.714844 29.082031 C 44.125 27.882812 43.027344 27.070312 41.699219 26.867188 C 41.070312 26.765625 36.378906 26.71875 32.898438 26.777344 Z M 41.613281 29.835938 C 41.871094 29.984375 42.140625 30.355469 42.242188 30.6875 C 42.316406 30.921875 42.335938 32.148438 42.335938 36.007812 C 42.335938 41.40625 42.34375 41.335938 41.949219 41.804688 C 41.582031 42.234375 41.765625 42.21875 35.964844 42.226562 L 30.636719 42.234375 L 30.335938 42.03125 C 30.175781 41.914062 29.976562 41.695312 29.894531 41.53125 C 29.757812 41.246094 29.75 41.070312 29.726562 36.199219 C 29.714844 32.609375 29.734375 31.03125 29.792969 30.746094 C 29.859375 30.421875 29.941406 30.277344 30.160156 30.0625 C 30.320312 29.910156 30.546875 29.765625 30.664062 29.734375 C 30.789062 29.699219 33.261719 29.691406 36.167969 29.714844 C 40.15625 29.742188 41.496094 29.773438 41.613281 29.835938 Z M 41.613281 29.835938 "/>
<path style=" stroke:none;fill-rule:nonzero;fill:rgb(0%,0%,0%);fill-opacity:1;" d="M 8.203125 26.867188 C 7.507812 26.996094 6.535156 27.605469 5.921875 28.269531 C 5.8125 28.402344 5.554688 28.804688 5.371094 29.179688 C 5.050781 29.808594 5.019531 29.910156 4.96875 30.605469 C 4.894531 31.535156 4.882812 39.878906 4.949219 41.050781 C 4.984375 41.730469 5.035156 42.007812 5.203125 42.449219 C 5.605469 43.492188 6.351562 44.261719 7.550781 44.871094 L 8.117188 45.15625 L 13.773438 45.15625 C 19.300781 45.15625 19.996094 45.132812 20.609375 44.921875 C 21.324219 44.671875 22.285156 43.84375 22.714844 43.105469 C 23.375 41.980469 23.449219 41.128906 23.398438 34.984375 C 23.367188 31.410156 23.339844 30.613281 23.242188 30.1875 C 22.949219 28.902344 22.09375 27.78125 20.980469 27.230469 C 20.585938 27.035156 20.207031 26.910156 19.871094 26.859375 C 19.242188 26.769531 8.664062 26.769531 8.203125 26.867188 Z M 19.773438 29.875 C 19.882812 29.949219 20.058594 30.121094 20.175781 30.277344 L 20.382812 30.539062 L 20.402344 35.816406 C 20.417969 40.449219 20.410156 41.128906 20.308594 41.394531 C 20.15625 41.804688 19.832031 42.089844 19.453125 42.160156 C 19.277344 42.191406 16.816406 42.21875 13.976562 42.226562 C 8.152344 42.226562 8.539062 42.265625 8.09375 41.648438 L 7.867188 41.335938 L 7.867188 30.613281 L 8.066406 30.328125 C 8.300781 29.992188 8.503906 29.851562 8.855469 29.777344 C 8.996094 29.75 11.46875 29.734375 14.34375 29.734375 C 19.175781 29.75 19.597656 29.757812 19.773438 29.875 Z M 19.773438 29.875 "/>
</g>
</svg>
