<?xml version="1.0" encoding="UTF-8"?>
<svg xmlns="http://www.w3.org/2000/svg" xmlns:xlink="http://www.w3.org/1999/xlink" width="50px" height="50px" viewBox="0 0 50 50" version="1.1">
<g id="surface1">
<path style=" stroke:none;fill-rule:nonzero;fill:rgb(0%,0%,0%);fill-opacity:1;" d="M 23.382812 0.0507812 C 23.140625 0.0664062 22.535156 0.125 22.027344 0.183594 C 17.335938 0.769531 13.078125 2.480469 9.625 5.175781 C 7.632812 6.726562 5.636719 8.863281 4.253906 10.90625 C 1.9375 14.335938 0.5625 18.199219 0.140625 22.503906 C 0.0273438 23.644531 0.0273438 26.449219 0.140625 27.515625 C 0.636719 32.261719 2.394531 36.78125 5.070312 40.214844 C 6.375 41.882812 8.109375 43.632812 9.625 44.8125 C 16.085938 49.832031 25.066406 51.308594 33.078125 48.675781 C 34.449219 48.222656 36.035156 47.527344 37.273438 46.839844 C 38.164062 46.339844 40.011719 45.117188 40.691406 44.578125 C 42.511719 43.113281 44.714844 40.652344 46.113281 38.515625 C 46.734375 37.566406 47.871094 35.28125 48.324219 34.066406 C 51.011719 26.910156 50.359375 18.691406 46.613281 12.324219 C 44.773438 9.199219 42.066406 6.285156 39.191406 4.324219 C 34.710938 1.273438 29.089844 -0.25 23.382812 0.0507812 Z M 27.085938 4.023438 C 29.808594 4.296875 32.378906 5.042969 34.703125 6.234375 C 38.664062 8.261719 41.78125 11.410156 43.808594 15.421875 C 45.316406 18.414062 46.035156 21.480469 46.035156 24.992188 C 46.035156 26.660156 45.910156 27.933594 45.585938 29.5 C 45.015625 32.347656 43.625 35.40625 41.832031 37.792969 C 41.4375 38.320312 40.332031 39.628906 40.28125 39.628906 C 40.265625 39.628906 40.003906 39.265625 39.6875 38.808594 C 38.832031 37.582031 38.253906 36.878906 37.398438 36.015625 C 35.070312 33.652344 31.910156 31.929688 28.652344 31.257812 C 28.023438 31.132812 26.414062 30.882812 26.199219 30.882812 C 26.15625 30.882812 26.128906 30.863281 26.128906 30.824219 C 26.128906 30.796875 26.375 30.730469 26.683594 30.679688 C 29.917969 30.167969 32.976562 27.632812 34.105469 24.523438 C 34.558594 23.292969 34.632812 22.890625 34.667969 21.507812 C 34.710938 19.964844 34.625 19.1875 34.289062 18.171875 C 33.664062 16.3125 32.574219 14.703125 31.148438 13.554688 C 29.078125 11.890625 26.769531 11.199219 24.046875 11.417969 C 23.007812 11.503906 22.476562 11.628906 21.472656 12.015625 C 19.21875 12.878906 17.226562 14.730469 16.179688 16.941406 C 14.660156 20.148438 15.0625 24.121094 17.191406 26.894531 C 18.039062 28.007812 19.035156 28.886719 20.183594 29.539062 C 21.222656 30.128906 22.988281 30.730469 23.75 30.746094 C 24.21875 30.753906 23.859375 30.855469 22.898438 30.992188 C 22.4375 31.058594 21.722656 31.175781 21.296875 31.265625 C 16.964844 32.113281 12.933594 34.878906 10.304688 38.808594 C 9.726562 39.671875 9.710938 39.6875 9.585938 39.542969 C 9.519531 39.453125 9.207031 39.089844 8.882812 38.722656 C 6.234375 35.648438 4.414062 31.308594 4.023438 27.113281 C 3.929688 26.082031 3.929688 23.582031 4.023438 22.722656 C 4.425781 19.175781 5.589844 15.96875 7.546875 13.0625 C 8.890625 11.066406 10.675781 9.242188 12.769531 7.742188 C 15.597656 5.714844 19.304688 4.363281 22.980469 4.003906 C 23.59375 3.9375 26.398438 3.960938 27.085938 4.023438 Z M 26.691406 15.5 C 27.75 15.859375 28.617188 16.4375 29.375 17.300781 C 29.949219 17.953125 30.261719 18.5 30.53125 19.320312 C 30.753906 19.972656 30.765625 20.082031 30.765625 21.113281 C 30.773438 22.175781 30.757812 22.234375 30.527344 22.9375 C 30.210938 23.84375 29.867188 24.363281 28.980469 25.257812 C 28.402344 25.835938 28.167969 26.011719 27.664062 26.265625 C 26.140625 27.011719 24.589844 27.113281 23.054688 26.574219 C 22.285156 26.300781 21.765625 25.972656 21.070312 25.328125 C 20.199219 24.523438 19.707031 23.75 19.386719 22.652344 C 19.242188 22.152344 19.210938 21.910156 19.210938 21.003906 C 19.21875 20.039062 19.234375 19.890625 19.414062 19.371094 C 19.707031 18.523438 19.988281 18.027344 20.5 17.433594 C 21.40625 16.371094 22.367188 15.742188 23.527344 15.449219 C 24.328125 15.246094 26.003906 15.273438 26.691406 15.5 Z M 27.078125 34.9375 C 30.570312 35.480469 33.929688 37.527344 36.015625 40.398438 C 36.535156 41.117188 36.753906 41.453125 36.996094 41.925781 C 37.148438 42.242188 37.171875 42.335938 37.089844 42.390625 C 36.828125 42.5625 36.023438 43.027344 35.203125 43.480469 C 32.976562 44.695312 30.621094 45.476562 28.023438 45.863281 C 26.953125 46.027344 23.308594 46.046875 22.25 45.902344 C 20.097656 45.601562 18.019531 45.007812 16.128906 44.152344 C 15.433594 43.84375 13.621094 42.851562 12.878906 42.375 C 12.785156 42.316406 12.800781 42.25 12.984375 41.921875 C 14.855469 38.480469 18.441406 35.832031 22.277344 35.054688 C 23.769531 34.753906 25.578125 34.710938 27.078125 34.9375 Z M 27.078125 34.9375 "/>
</g>
</svg>
